<svg xmlns="http://www.w3.org/2000/svg" width="33" height="32" fill="none">
  <path fill="currentColor" d="M16.414 0a16.521 16.521 0 0 0-10.8 4.013A16.195 16.195 0 0 0 .15 14.064a16.108 16.108 0 0 0 2.565 11.128 16.41 16.41 0 0 0 9.33 6.711 1.277 1.277 0 0 0 1.423-.379 1.245 1.245 0 0 0 .09-1.455 1.255 1.255 0 0 0-.844-.565A13.889 13.889 0 0 1 4.91 24a13.634 13.634 0 0 1-2.344-9.194 13.691 13.691 0 0 1 4.231-8.509 13.965 13.965 0 0 1 8.793-3.773c3.29-.186 6.54.792 9.17 2.758a13.733 13.733 0 0 1 5.182 7.976 13.617 13.617 0 0 1-1.27 9.398 13.842 13.842 0 0 1-7.118 6.35 19.598 19.598 0 0 0-.379-4.9 7.93 7.93 0 0 0 4.528-2.827 7.78 7.78 0 0 0 1.673-5.032 7.958 7.958 0 0 0-1.326-4.836 8.771 8.771 0 0 0-.505-4.199 1.252 1.252 0 0 0-.54-.67 1.274 1.274 0 0 0-.85-.167 10.17 10.17 0 0 0-4.256 1.6 14.478 14.478 0 0 0-3.485-.476c-1.28.034-2.552.214-3.79.538A7.299 7.299 0 0 0 8.357 6.56a1.273 1.273 0 0 0-.77.205c-.228.148-.4.366-.493.62a8.735 8.735 0 0 0-.467 3.986A8.863 8.863 0 0 0 5.3 16.246a8.269 8.269 0 0 0 1.828 4.97 8.42 8.42 0 0 0 4.486 2.877 9.205 9.205 0 0 0-.189.988c-1.263.075-1.996-.688-2.93-1.85a4.35 4.35 0 0 0-2.45-1.912 1.274 1.274 0 0 0-.918.188 1.25 1.25 0 0 0-.535.762c-.07.313-.016.64.151.914.167.275.434.475.746.56.202 0 .695.65.972 1.013a5.956 5.956 0 0 0 2.021 1.978c.825.49 1.756.775 2.716.833.555 0 1.107-.076 1.641-.225.131-.038.255-.097.367-.175a.903.903 0 0 0 .227-.262.425.425 0 0 0 .101-.113c.033-.068.058-.139.076-.212.03-.081.056-.165.076-.25a5.09 5.09 0 0 1 .58-2.387 1.245 1.245 0 0 0 .188-1.335 1.272 1.272 0 0 0-1.147-.727 5.836 5.836 0 0 1-3.859-1.753 5.717 5.717 0 0 1-1.623-3.882 6.002 6.002 0 0 1 1.1-3.75 1.245 1.245 0 0 0 .302-1.036 6.183 6.183 0 0 1 0-2.312 4.55 4.55 0 0 1 2.198 1.15 1.266 1.266 0 0 0 1.263.287 15.931 15.931 0 0 1 3.726-.587c1.135.028 2.26.209 3.347.537a1.276 1.276 0 0 0 1.263-.225c.735-.6 1.599-1.027 2.525-1.25.19.785.19 1.603 0 2.387a1.299 1.299 0 0 0 .405 1.25 4.958 4.958 0 0 1 .896 3.549 5.312 5.312 0 0 1-.362 2.152 5.356 5.356 0 0 1-1.199 1.832 5.422 5.422 0 0 1-1.837 1.207 5.47 5.47 0 0 1-2.171.382c-.258 0-.51.077-.723.222a1.252 1.252 0 0 0-.508 1.339c.063.248.202.47.397.638.745.638.632 4.999.594 6.698a1.24 1.24 0 0 0 .48 1.012c.223.172.5.265.783.263.105.012.21.012.315 0a16.418 16.418 0 0 0 9.546-6.62 16.111 16.111 0 0 0 2.698-11.221 16.195 16.195 0 0 0-5.51-10.165A16.523 16.523 0 0 0 16.413.001Z"/>
</svg>
