<svg xmlns="http://www.w3.org/2000/svg" width="37" height="32" fill="none">
  <path fill="currentColor" d="M32.745 2.67c1.486 0 1.877 1.134 1.438 3.8-.503 3.048-1.952 13.14-3.108 19.422-.442 2.404-1.24 3.44-2.4 3.44-.637 0-1.384-.313-2.242-.885-1.163-.775-7.033-4.696-8.307-5.617-1.163-.84-2.767-1.849-.755-3.837.716-.708 5.408-5.234 9.064-8.756.39-.376.063-.95-.37-.95a.547.547 0 0 0-.306.098c-4.927 3.301-11.76 7.882-12.63 8.48-.869.596-1.716.978-2.845.978-.577 0-1.228-.1-1.994-.322-1.711-.497-3.382-1.088-4.033-1.314-2.506-.869-1.912-1.994.522-3.076C14.537 9.796 27.164 4.51 28.907 3.778c1.698-.713 2.96-1.109 3.838-1.109Zm0-2.67c-1.205 0-2.656.392-4.85 1.311l-.263.11C18.264 5.352 9.77 8.998 3.715 11.688c-.946.421-3.824 1.7-3.712 4.374.048 1.154.677 2.727 3.397 3.67l.2.068c.76.265 2.34.816 3.962 1.286.986.287 1.878.425 2.722.425a7.028 7.028 0 0 0 3.49-.914c-.005.15-.001.3.01.45.16 2.058 1.735 3.186 2.676 3.86l.131.095c1.39 1.003 7.676 5.198 8.388 5.672 1.34.894 2.549 1.327 3.698 1.327 1.808 0 4.143-.975 4.997-5.621.812-4.407 1.749-10.563 2.433-15.058.292-1.918.531-3.49.684-4.413.307-1.863.448-3.974-.835-5.503C35.416.765 34.423 0 32.745 0Z"/>
</svg>
