<svg xmlns="http://www.w3.org/2000/svg" width="41" height="32" fill="none">
  <g fill="currentColor">
    <path d="m40.487 4.324-1.623-1.643-15.033 15.222c-1.88 1.902-5.04 1.902-6.919 0L1.88 2.767.256 4.411l11.19 11.33L.256 27.07l1.623 1.642 11.19-11.33 2.22 2.25c1.367 1.383 3.16 2.162 5.04 2.162s3.673-.779 5.04-2.163l2.22-2.248 11.19 11.33 1.623-1.644-11.19-11.33L40.487 4.324Z"/>
    <path d="M37.327 31.654H3.587C1.623 31.654 0 30.011 0 28.022V3.632C0 1.643 1.623 0 3.587 0h33.74c1.965 0 3.588 1.643 3.588 3.632v24.39c0 1.989-1.623 3.632-3.588 3.632ZM3.502 2.335c-.683 0-1.196.519-1.196 1.211v24.39c0 .691.513 1.21 1.196 1.21h33.74c.683 0 1.196-.519 1.196-1.21V3.545c0-.692-.513-1.21-1.196-1.21H3.502Z"/>
  </g>
</svg>
