<svg xmlns="http://www.w3.org/2000/svg" width="25" height="32" fill="none">
  <path fill="currentColor" d="M12.632.015 12.5 0 0 1.325v23.158L12.5 32 25 24.483V1.325L12.632.015Zm10.733 23.529L12.5 30.077 1.635 23.544V14.05l10.82 6.51.017 1.179-7.422-4.465-.01 1.153 7.45 4.526.018 1.21-7.449-4.477-.01 1.153 7.451 4.526 7.522-4.549V15.914l3.351-2.023-.008 9.653Zm0-10.883-2.981 1.769-1.372.824-6.543-3.941-.01 1.153 5.593 3.363-.05.03-.12.07-.795.463-4.618-2.774-.01 1.153 3.645 2.191-.864.573-.02.012-2.751-1.64-.01 1.154 1.803 1.067-1.84 1.117-10.758-6.467L12.44 6.229l10.925 6.432Zm0-1.154-10.92-6.509-10.81 6.503V2.814L12.5 1.66l10.865 1.153v8.693Z"/>
</svg>
